<?xml version="1.0" encoding="UTF-8" standalone="no"?>
<svg
   xmlns:dc="http://purl.org/dc/elements/1.1/"
   xmlns:cc="http://creativecommons.org/ns#"
   xmlns:rdf="http://www.w3.org/1999/02/22-rdf-syntax-ns#"
   xmlns:svg="http://www.w3.org/2000/svg"
   xmlns="http://www.w3.org/2000/svg"
   viewBox="0 0 871.10669 121.33333"
   height="121.33333"
   width="871.10669"
   xml:space="preserve"
   id="svg2"
   version="1.1"><metadata
     id="metadata8"><rdf:RDF><cc:Work
         rdf:about=""><dc:format>image/svg+xml</dc:format><dc:type
           rdf:resource="http://purl.org/dc/dcmitype/StillImage" /></cc:Work></rdf:RDF></metadata><defs
     id="defs6"><clipPath
       id="clipPath22"
       clipPathUnits="userSpaceOnUse"><path
         id="path20"
         d="M 0,910 H 910 V 0 H 0 Z" /></clipPath><radialGradient
       id="radialGradient30"
       spreadMethod="pad"
       gradientTransform="matrix(596.782,0,0,607.321,369.165,609.8)"
       gradientUnits="userSpaceOnUse"
       r="1"
       cy="0"
       cx="0"
       fy="0"
       fx="0"><stop
         id="stop24"
         offset="0"
         style="stop-opacity:1;stop-color:#322f54" /><stop
         id="stop26"
         offset="0.77"
         style="stop-opacity:1;stop-color:#131329" /><stop
         id="stop28"
         offset="1"
         style="stop-opacity:1;stop-color:#131329" /></radialGradient></defs><g
     transform="matrix(1.3333333,0,0,-1.3333333,0,121.33333)"
     id="g10"><g
       transform="scale(0.1)"
       id="g12"><path
         id="path14"
         style="fill:#1b181a;fill-opacity:1;fill-rule:nonzero;stroke:none"
         d="m 3189.66,438.672 c 0,16.328 -2.33,30.328 -7,46.66 -4.67,14 -9.33,28.004 -18.66,39.668 -9.34,11.664 -21.01,21 -32.67,28 -44.33,21 -98,11.668 -133,-23.332 -21,-25.668 -35,-58.336 -35,-90.996 z M 2961,396.66 c 0,-51.328 11.66,-90.996 35,-114.324 30.33,-25.676 67.67,-39.668 107.33,-37.336 18.67,0 37.34,2.336 53.67,4.668 16.33,2.336 32.66,6.992 49,14.004 2.33,-7.012 4.67,-14.004 7,-21.004 2.34,-7.004 2.34,-16.34 2.34,-23.332 -16.34,-7 -35,-11.668 -51.34,-16.34 -21,-4.656 -44.34,-4.656 -65.33,-4.656 -30.34,0 -58.33,4.656 -86.34,13.996 -23.33,9.324 -44.33,23.328 -60.66,42 -16.33,18.66 -28,39.668 -35,63 -7.01,25.66 -11.67,53.66 -11.67,81.668 0,28 2.33,53.664 9.33,79.332 7,23.328 16.34,46.664 30.33,65.332 14.01,18.668 32.67,35 53.67,44.332 25.67,11.668 51.33,16.332 79.33,16.332 23.34,0 46.67,-4.664 67.67,-14 18.67,-9.332 37.33,-21 49,-37.332 14,-16.336 23.33,-35 30.33,-55.996 7.01,-23.336 11.67,-46.672 9.34,-70 0,-4.668 0,-9.336 0,-18.664 0,-7.012 0,-14.004 0,-18.672 7,6.992 -273,6.992 -273,6.992 z M 2529.33,254.336 c 11.67,-4.668 23.34,-7 37.34,-9.336 13.99,-2.332 27.99,-2.332 42,-2.332 20.99,0 39.66,2.332 58.33,9.336 18.66,7 35,16.336 49,30.332 14,13.992 25.67,32.664 32.67,51.336 9.32,23.332 13.99,51.328 11.66,76.992 2.33,37.332 -7,74.668 -25.67,109.668 -18.66,28.004 -51.33,42.004 -86.33,39.668 -14,0 -28,-2.332 -39.66,-7 -14.01,-4.664 -28.01,-11.668 -39.67,-20.996 -14,-9.336 -23.34,-23.336 -30.33,-37.336 C 2529.33,476 2527,455 2527,434.004 Z M 2478,770 h 35 c 4.67,0 9.33,0 14,0 V 543.668 c 11.67,18.668 28,32.664 46.67,44.332 23.33,14.004 51.33,21 79.33,18.664 23.33,0 44.33,-2.332 65.33,-11.664 18.67,-7 37.34,-18.668 51.33,-35 14.01,-16.332 25.67,-37.332 32.67,-60.664 9.34,-28.004 11.67,-58.34 11.67,-86.34 4.67,-58.328 -16.34,-116.668 -56.01,-160.992 -37.33,-37.336 -90.99,-58.332 -160.99,-58.332 -23.33,0 -44.33,2.324 -67.67,6.992 -18.67,2.332 -35,7.004 -53.67,14.004 L 2478,770 Z M 2191,242.668 c 35,-2.336 70,13.992 91,42 21,35 32.66,76.992 30.33,116.66 2.33,42.012 -7,81.668 -30.33,119.004 -42,51.332 -116.67,58.336 -168,16.332 -4.67,-4.66 -11.67,-9.328 -16.33,-16.332 -21,-35 -32.67,-76.992 -30.34,-116.66 -2.33,-42.012 9.34,-81.668 30.34,-116.668 23.33,-28 58.33,-44.336 93.33,-44.336 z m 0,-44.328 c -25.67,0 -51.34,4.656 -77,16.328 -21,9.336 -42,25.664 -56,44.336 -14,18.664 -25.67,41.992 -32.67,65.332 -14,51.328 -14,107.324 0,160.996 7,23.336 16.34,46.672 32.67,65.336 14,18.668 32.66,32.668 53.67,44.332 23.33,11.664 48.99,16.332 77,16.332 25.66,0 51.33,-4.668 76.99,-16.332 21.01,-9.332 39.67,-25.664 53.67,-44.332 14,-18.664 25.67,-42 32.67,-65.336 14,-51.328 14,-107.336 0,-160.996 -7,-23.34 -18.67,-46.668 -32.67,-65.332 -14,-18.672 -32.66,-32.676 -53.67,-44.336 -23.33,-9.336 -48.99,-16.328 -74.66,-16.328 z M 1852.67,546 c -11.67,4.668 -25.67,9.332 -39.67,11.668 -16.33,2.332 -32.67,4.668 -49,4.668 -21,0 -42,-4.668 -63,-11.668 -16.34,-7 -32.67,-18.664 -44.33,-35 -11.67,-16.332 -21.01,-32.672 -25.67,-51.332 -7,-20.996 -9.33,-44.336 -9.33,-67.676 0,-53.664 11.66,-90.996 37.33,-116.66 30.33,-25.664 67.67,-39.668 107.33,-37.332 16.34,0 32.67,0 49,2.332 11.67,2.336 23.34,2.336 35,7.004 V 546 Z m 0,224 c 4.66,0 9.33,0 14,0 h 35 V 217.004 C 1883,210 1862,207.668 1843.33,202.996 c -23.33,-4.656 -49,-4.656 -72.33,-4.656 -25.67,0 -53.67,2.324 -79.33,9.328 -23.34,7 -44.34,16.336 -63,32.664 -18.67,18.672 -32.67,39.668 -42,63.008 -11.67,30.332 -16.34,60.664 -16.34,90.996 0,30.332 4.67,60.664 14,90.996 9.34,25.668 21,49.004 39.67,67.668 16.33,18.664 37.33,32.668 60.66,42 25.67,9.336 51.34,14 79.34,14 16.33,0 32.67,-2.336 49,-4.664 14,-2.332 28,-4.668 39.67,-9.336 V 770 Z M 1390.66,396.66 1292.67,702.336 1194.66,396.66 Z M 1262.33,758.336 H 1323 L 1507.33,210 c -4.66,0 -9.33,0 -14,0 H 1449 l -46.67,140 H 1176 l -44.33,-140 h -56.01 l 186.67,548.336 v 0" /><g
         id="g16"><g
           clip-path="url(#clipPath22)"
           id="g18"><path
             id="path32"
             style="fill:url(#radialGradient30);fill-opacity:1;fill-rule:nonzero;stroke:none"
             d="M 0,910 H 910 V 0 H 0 v 910" /></g></g><path
         id="path34"
         style="fill:#dbc9e9;fill-opacity:1;fill-rule:nonzero;stroke:none"
         d="m 576.332,543.668 h -35 V 205.332 c 11.664,4.668 23.332,9.336 35,14.004 z m -312.664,-161 h -35 v -70 c 11.664,-13.996 23.328,-30.332 35,-42.004 z m -16.332,58.328 83.996,95.668 79.332,-30.332 L 578.668,627.668 665,546 706.996,581 700,597.336 665,567.004 580.996,644 410.664,522.668 331.332,553 242.664,452.668 184.332,438.672 v -11.668 z m 394.328,-168 c 14,14.008 25.672,30.344 35,46.672 v 179.668 h -35 z M 434,471.332 V 191.328 c 4.668,0 11.664,-2.324 18.668,-2.324 6.996,0 11.664,0 18.664,0 V 471.332 Z M 368.668,455 h -35 V 217.004 c 11.664,-4.668 23.328,-9.336 35,-14.008 V 455" /><path
         id="path36"
         style="fill:#7b70bf;fill-opacity:1;fill-rule:nonzero;stroke:none"
         d="m 105,459.668 c 0,193.668 156.332,350 350,350 193.668,0 350,-156.332 350,-350 0,-193.672 -156.332,-350 -350,-350 -193.668,-2.332 -350,156.328 -350,350 z m -42.0039,0 c 0,-217 174.9999,-392 392.0039,-392 216.996,0 391.996,175 391.996,392 0,216.996 -175,391.996 -391.996,391.996 -214.668,0 -392.0039,-177.328 -392.0039,-391.996" /><path
         id="path38"
         style="fill:#040606;fill-opacity:1;fill-rule:nonzero;stroke:none"
         d="M 5693.33,602.004 H 5747 V 207.668 h -53.67 z m -1043,-198.332 -32.67,2.324 c -11.66,0 -25.66,0 -37.33,0 -32.67,2.344 -63,-6.992 -91,-23.328 -21,-13.996 -32.66,-37.336 -32.66,-63 0,-14.004 2.33,-28.008 9.33,-42 7,-9.328 14,-18.664 25.67,-23.332 11.66,-4.668 23.33,-9.336 35,-11.668 11.66,-2.336 25.66,-2.336 37.33,-2.336 16.34,0 30.33,0 46.67,2.336 13.99,2.332 28,4.668 41.99,7 l -2.32,154.004 z m 0,67.66 c 2.33,28.004 -7,53.668 -23.33,74.668 -21,16.336 -46.67,25.664 -72.34,23.336 -18.66,0 -37.33,-2.332 -58.33,-4.668 -16.33,-2.332 -30.33,-7 -46.67,-11.668 -2.33,7 -4.66,14.004 -7,21 -2.33,9.336 -2.33,16.332 -2.33,25.668 16.34,4.668 32.66,9.332 49,11.664 21,2.336 39.67,4.668 60.67,4.668 39.66,2.336 81.67,-9.336 112,-32.664 25.66,-28.004 39.67,-65.336 37.33,-105 V 214.668 c -18.66,-4.668 -39.67,-7 -67.66,-11.672 -25.67,-4.656 -49.01,-4.656 -74.67,-4.656 -39.67,-2.344 -79.34,6.992 -114.34,27.988 -30.33,21.008 -44.33,58.34 -41.99,93.34 0,18.672 4.67,39.668 11.66,55.996 7,16.34 18.67,30.332 32.67,42.004 16.33,11.668 32.66,21.004 51.33,25.672 21,6.992 44.34,9.328 65.34,9.328 18.67,0 35,0 49,-2.336 l 32.66,-2.336 7.01,23.336 z m 1631,-177.328 C 6314,263.672 6356,247.336 6398,247.336 c 42,0 79.33,21.004 79.33,62.996 0,86.328 -212.33,65.332 -212.33,193.668 0,70 63,109.668 135.33,109.668 44.33,2.332 88.67,-14 121.34,-44.336 l -23.34,-39.664 c -28,23.332 -63,37.336 -98,35 -39.66,0 -79.33,-16.332 -79.33,-60.668 0,-86.332 212.33,-63.004 212.33,-193.668 0,-65.332 -56,-109.668 -135.33,-109.668 -53.67,-2.324 -107.33,18.672 -144.67,58.34 z M 6034,611.332 c 53.66,2.336 105,-18.664 144.67,-56 l -28,-39.664 c -30.33,30.332 -72.34,46.668 -114.34,46.668 -84,2.332 -151.67,-65.332 -154,-149.34 0,-2.332 0,-7 0,-9.324 -2.33,-84.004 63.01,-154.004 147,-156.336 2.34,0 4.67,0 7,0 49,0 93.33,21.004 126,56.004 l 23.34,-42.012 C 6146,221.66 6090,198.34 6031.67,200.664 c -109.67,-2.324 -203,84.004 -205.34,193.672 0,4.668 0,9.336 0,11.66 -2.33,112.004 86.33,203.004 196,205.336 7,0 9.34,0 11.67,0 z M 5040,4.66797 l 65.33,151.66003 23.34,56.008 -163.34,389.668 h 58.34 L 5140.33,315 c 7,-18.672 14,-42.004 14,-42.004 h 2.34 c 4.66,14.008 7,28 14,42.004 L 5285,602.004 h 58.33 L 5149.66,125.996 5091.33,2.33594 5040,4.66797 Z M 4822.99,758.336 h 53.68 V 312.668 c 0,-51.34 23.33,-58.332 44.33,-58.332 4.67,0 9.33,0 14,0 v -46.668 c -7.01,0 -14,-2.336 -18.67,-2.336 -32.66,0 -91,9.336 -91,95.664 z M 3978.33,602.004 h 51.33 v -58.336 c 0,-16.332 -2.33,-30.332 -2.33,-30.332 h 2.33 c 28,62.996 88.67,100.332 156.34,100.332 98,0 130.67,-56 130.67,-151.664 V 210 h -53.68 v 233.34 c 0,60.66 -9.32,116.66 -86.32,116.66 -67.67,0 -126,-46.664 -142.34,-112.004 -4.67,-16.336 -7,-35 -7,-53.66 V 205.332 h -53.66 v 396.672 z m -308,100.332 c 0,0 -11.66,-46.668 -21,-70 L 3574.66,431.66 h 189.01 l -72.34,200.676 c -7,23.332 -18.67,67.664 -20.99,70 z M 3782.33,385 h -221.66 l -63.01,-175 h -58.33 l 203,550.668 h 58.34 L 3903.67,210 h -58.34 l -63,175" /><path
         id="path40"
         style="fill:#040606;fill-opacity:1;fill-rule:nonzero;stroke:none"
         d="m 5719,758.336 c 18.04,0 32.67,-14.629 32.67,-32.668 0,-18.039 -14.63,-32.668 -32.67,-32.668 -18.04,0 -32.67,14.629 -32.67,32.668 0,18.039 14.63,32.668 32.67,32.668" /><path
         id="path42"
         style="fill:#040606;fill-opacity:1;fill-rule:nonzero;stroke:none"
         d="m 5446,555.332 h -67.67 v 44.336 H 5446 v 74.668 h 51.33 v -74.668 h 107.33 V 555.332 H 5497.33 V 296.328 c 0,-11.66 2.33,-20.996 4.67,-30.332 2.33,-6.992 7,-13.992 14,-18.66 4.67,-4.668 11.66,-7.004 18.66,-9.34 7.01,-2.332 14.01,-2.332 21.01,-2.332 16.33,0 32.66,2.332 46.66,7.004 4.67,-13.996 7,-28 7,-44.328 -21,-7.012 -44.33,-9.336 -65.33,-9.336 -25.67,-2.344 -51.34,6.992 -72.33,23.332 -21,21.004 -30.34,51.336 -25.67,79.324 v 263.672" /></g></g></svg>